<?xml version="1.0" encoding="utf-8"?>
<!-- Generator: Adobe Illustrator 25.2.1, SVG Export Plug-In . SVG Version: 6.00 Build 0)  -->
<svg version="1.1" id="Layer_1" xmlns="http://www.w3.org/2000/svg" xmlns:xlink="http://www.w3.org/1999/xlink" x="0px" y="0px"
	 viewBox="0 0 1216 578" style="enable-background:new 0 0 1216 578;" xml:space="preserve">
<style type="text/css">
	.st0{fill:#501B0A;}
	.st1{fill:#59251A;}
</style>
<g>
	<g>
		<rect x="0" class="st0" width="1216" height="578"/>
		<path class="st1" d="M1125.442,582.1c-3.201,0.003-6.402,0.006-9.604,0.008c-2.967-27.705-2.012-56.388-5.281-83.693
			c-5.682,26.522-0.415,56.155-1.436,83.69c-4.001-0.001-8.003-0.002-12.004-0.002c-4.143-81.353,10.932-161.407,15.324-242.475
			c2.248-66.382-0.252-132.917-1.893-199.307c-2.546-48.458-2.362-97.21-9.116-145.318c8.807,0.001,17.614,0.002,26.421,0.003
			c-4.856,46.384,0.65,93.063,8.463,138.824c9.911,65.538,27.169,129.797,36.101,195.481c3.735,41.734,3.996,83.745-2.382,125.233
			c-5.317,42.441-9.874,84.985-13.874,127.562c-2.561-0.002-5.123-0.005-7.684-0.007c2.613-36.935,5.828-73.836,9.564-110.671
			c3.36-34.951,9.498-70.042,6.763-105.22c-0.847-35.472-7.62-70.326-14.946-104.915c-4.653-22.016-8.087-44.882-15.4-66.009
			c-7.024,48.731-7.911,98.455-10.92,147.636C1117.899,422.562,1123.414,502.425,1125.442,582.1z"/>
		<path class="st1" d="M460.172-4.991c-3.327,88.1-8.061,176.767,0.001,264.697c3.263,40.903,9.373,81.501,12.927,122.377
			c4.985,53.643,4.752,107.612,4.143,161.44c-0.095,4.605-0.305,10.359-5.928,12.787c-2.532,1.093-4.758,0.764-4.882-2.677
			c-2.665-40.396,2.816-80.779-0.057-121.176c-2.815-57.081-10.364-114.541-16.543-170.963
			c-9.267,36.024-8.705,73.888-12.709,110.779c-5.31,69.844-9.745,139.746-9.601,209.827c-3.361,0.002-6.723,0.004-10.084,0.006
			c-4.99-195.956,43.933-391.367,16.309-587.1C442.556-4.993,451.364-4.992,460.172-4.991z"/>
		<path class="st1" d="M721.292-4.993c-3.824,89.976-9.298,180.507,0.956,270.201c7.261,73.192,17.265,146.184,16.277,219.942
			c0.162,17.966,0.207,35.937-0.081,53.899c-0.674,7.029-0.311,15.708-8.767,17.685c-4.848-11.375-1.876-26.015-3.049-38.404
			c0.983-28.212,2.878-56.531,0.858-84.761c-3.321-57.506-10.323-114.897-16.257-172.069
			c-10.078,40.359-10.97,82.872-14.008,124.351c-5.884,65.264-7.734,130.738-8.579,196.252c-3.361,0-6.723,0-10.084,0
			c-5.585-195.993,43.71-391.293,16.309-587.096C703.675-4.993,712.484-4.993,721.292-4.993z"/>
		<path class="st1" d="M980.973-4.989c-3.086,95.822-8.777,192.062,2.397,287.563c10.294,84.73,18.022,169.73,15.229,255.189
			c-0.612,7.379-0.01,16.683-8.832,18.966c-6.731-18.569-1.956-39.726-2.1-59.217c0.748-21.247,1.494-42.51-0.023-63.742
			c-2.997-57.535-10.855-114.667-16.394-171.96c-6.811,16.839-6.544,36.303-8.547,54.325c-2.593,23.088-4.805,46.196-5.755,69.42
			c-4.507,65.453-8.898,130.89-8.624,196.543c-3.201,0.001-6.403,0.002-9.604,0.003c-4.4-112.557,12.578-224.355,19.677-336.444
			c7.198-83.585,6.318-167.316-3.369-250.65C963.675-4.991,972.324-4.99,980.973-4.989z"/>
		<path class="st1" d="M189.464-4.297c-6.263,104.759-8.14,210.151,3.871,314.571c5.958,48.161,9.817,96.578,10.931,145.113
			c-1.783,17.721,8.147,100.396-8.133,102.178c-7.575-34.787,2.14-71.4-0.954-106.824c-2.064-62.884-9.586-125.995-15.61-188.295
			c-10.205,45.635-10.308,94.631-14.144,141.639c-3.58,59.414-8.726,119.099-6.197,178.616c-3.218-0.002-6.436-0.003-9.654-0.005
			c-4.657-195.975,39.789-391.223,14.886-586.986C172.794-4.292,181.129-4.294,189.464-4.297z"/>
		<path class="st1" d="M784.158,582.109c4.222-81.887,2.358-163.853,0.972-245.788c-2.063-113.769,0.716-227.542,0.937-341.318
			c3.369,0.001,6.737,0.002,10.105,0.003c1.615,122.993-2.05,245.802-1.387,368.786c1.66,72.619,5.047,145.7,1.376,218.315
			C792.161,582.108,788.159,582.108,784.158,582.109z"/>
		<path class="st1" d="M523.039,582.109c5.993-82.558,0.967-165.267,0.961-247.935c-2.443-113.064,1.494-226.101,1.427-339.166
			c3.209,0,6.417,0,9.626-0.001c1.83,124.422-1.776,248.769-0.952,373.175c0.2,71.279,5.229,142.735,0.941,213.921
			C531.041,582.106,527.04,582.107,523.039,582.109z"/>
		<path class="st1" d="M1044.318,582.106c4.251-82.094,2.241-164.405,0.968-246.582c-2.073-113.502,0.73-227.01,0.941-340.521
			c3.209,0.002,6.417,0.004,9.626,0.006c1.618,118.162-0.254,236.242-0.911,354.419c-0.636,77.569,6.073,155.208,0.901,232.674
			C1052.001,582.103,1048.16,582.105,1044.318,582.106z"/>
		<path class="st1" d="M590.732-4.994c-0.367,43.121,1.625,86.573-4.485,129.379c-8.626,45.979-18.538,91.904-20.513,138.845
			c-8.575,106.333,5.171,212.657,9.627,318.873c-3.201,0.001-6.402,0.002-9.604,0.003c-5.485-114.613-17.473-229.48-9.534-344.264
			c2.42-40.099,14.085-78.646,19.955-118.187c5.41-41.256,1.456-83.207,3.968-124.651C583.676-4.995,587.204-4.995,590.732-4.994z"
			/>
		<path class="st1" d="M329.612-4.993c-0.387,39.868,1.683,79.932-3.419,119.578c-7.593,54.818-21.73,108.767-22.519,164.518
			c-5.693,101.07,5.758,202.159,11.047,303.005c-3.361,0-6.722-0.001-10.083-0.001c-5.699-114.496-17.058-229.535-9.535-344.238
			c2.373-40.351,14.242-79.22,20.459-119.004c4.145-41.157,2.894-82.533,3.465-123.863C322.556-4.996,326.084-4.994,329.612-4.993z"
			/>
		<path class="st1" d="M850.892-4.995c-0.148,46.333,1.757,93.062-6.586,138.845c-7.176,41.689-15.756,83.209-18.368,125.591
			c-8.349,107.655,4.27,215.174,9.585,322.663c-3.201,0-6.402,0.001-9.604,0.001c-6.317-108.5-14.889-217.161-11.025-325.906
			c1.785-43.939,12.364-86.732,20.496-129.77c6.154-43.563,4.123-87.614,4.439-131.429C843.516-4.998,847.204-4.996,850.892-4.995z"
			/>
		<path class="st1" d="M848.478,582.1c5.977-83.377,10.343-166.794,9.533-250.426c-1.683-112.375-7.516-225.096,9.176-336.667
			c3.209,0.001,6.417,0.001,9.626,0.002c-8.444,66.189-9.871,133.129-12.914,199.705c2.532,129.104,10.123,258.807-5.337,387.392
			C855.2,582.104,851.839,582.102,848.478,582.1z"/>
		<path class="st1" d="M327.678,582.099c5.199-82.992,10.57-165.97,9.53-249.203c-1.929-112.77-8.343-225.883,8.699-337.891
			c3.369,0,6.737,0.001,10.106,0.001c-10.108,84.262-13.376,169.499-11.983,254.358c4.52,110.862,6.419,222.356-6.748,332.738
			C334.081,582.101,330.879,582.1,327.678,582.099z"/>
		<path class="st1" d="M588.318,582.101c5.997-82.847,10.721-165.735,10.003-248.852c-3.186-112.738-7.59-226.22,8.707-338.243
			c3.209,0.002,6.417,0.003,9.626,0.005c-8.735,75.708-12.05,152.218-11.993,228.447c2.588,119.526,8.139,239.672-6.258,358.646
			C595.041,582.103,591.679,582.102,588.318,582.101z"/>
		<path class="st1" d="M624.318,582.102c-7.371-63.667-11.701-128.42-5.206-192.344c3.922-42.747,15.255-84.236,21.552-126.602
			c7.868-36.604,7.9-74.088,10-111.323c0.017-52.273,2.341-104.601-0.436-156.83c3.368,0.001,6.737,0.001,10.105,0.002
			c-2.292,89.532,6.719,180.245-8.53,268.867c-5.552,34.846-14.826,69.028-19.763,104.006
			c-7.948,71.196-7.249,143.202,1.882,214.228C630.721,582.104,627.519,582.103,624.318,582.102z"/>
		<path class="st1" d="M363.198,582.103c-7.469-59.694-10.632-120.507-6.184-180.56c4.866-48.821,16.119-96.542,23.898-144.903
			c12.251-86.464,9.53-174.51,8.675-261.633c3.209-0.001,6.417-0.002,9.626-0.002c-2.155,88.869,6.244,178.667-7.785,266.779
			c-6.603,38.458-16.874,76.279-21.482,115.076c-7.538,68.271-5.047,137.215,3.335,205.25
			C369.92,582.107,366.559,582.105,363.198,582.103z"/>
		<path class="st1" d="M884.478,582.101c-7.594-59.501-10.654-119.976-6.66-179.87c6.033-49.982,15.894-99.383,24.873-148.872
			c10.922-85.515,9.143-172.287,7.696-258.354c3.368-0.001,6.737-0.003,10.105-0.004c-3.425,88.882,5.919,178.672-7.785,266.916
			c-8.272,44.095-19.536,87.695-23.864,132.509c-3.967,62.472-2.832,125.641,5.238,187.682
			C890.88,582.105,887.679,582.103,884.478,582.101z"/>
		<path class="st1" d="M1028.972-4.999c6.735,100.126,13.874,200.384,5.215,300.666c-6.062,95.549-25.599,190.409-20.585,286.434
			c-3.201,0-6.403-0.001-9.604-0.001c-6.367-88.231,12.446-175.083,18.236-262.807c9.273-107.934,5.785-216.574-4.327-324.292
			C1021.596-4.998,1025.284-4.998,1028.972-4.999z"/>
		<path class="st1" d="M507.692-4.996c7.055,100.236,13.86,200.82,5.244,301.202c-4.74,95.409-26.861,190.189-20.134,285.899
			c-3.361-0.001-6.723-0.002-10.084-0.004c-5.295-88.748,12.826-176.117,18.729-264.403c9.404-107.426,4.859-215.419-4.34-322.694
			C500.635-4.996,504.164-4.996,507.692-4.996z"/>
		<path class="st1" d="M768.812-4.998c6.468,100.306,14.163,200.864,5.237,301.319c-5.534,95.364-25.761,189.988-20.607,285.78
			c-3.201,0-6.403,0-9.604,0c-0.051-32.245-2.527-64.581,1.024-96.707c6.502-61.448,14.984-122.591,18.669-184.323
			c8.132-101.95,3.21-204.324-5.304-306.064C761.755-4.995,765.284-4.996,768.812-4.998z"/>
		<path class="st1" d="M247.5,582.695c4.147-195.627-2.257-391.322,0.957-586.989c3.375-0.002,6.75-0.003,10.125-0.005
			c-0.548,120.047-1.901,240.641-1.921,360.892c0.111,75.28,5.667,151.03,0.96,226.107
			C254.247,582.698,250.874,582.697,247.5,582.695z"/>
		<path class="st1" d="M68.5-4.287c-0.067,46.122,1.533,92.382-5.349,138.138c-6.296,39.35-14.287,78.442-16.764,118.334
			c-8.925,110.145,3.378,220.449,8.194,330.514c-3.056,0.003-6.111,0.005-9.167,0.008c-3.943-112.849-15.451-225.851-9.03-338.812
			c2.663-43.83,13.98-86.313,19.14-129.724C59.389,74.836,58.137,35.19,59.34-4.287C62.393-4.287,65.447-4.287,68.5-4.287z"/>
		<path class="st1" d="M66.54,582.696c5.304-89.092,10.433-178.32,8.645-267.619c-0.469-65.827-4.349-131.711-1.885-197.514
			c1.415-40.761,7.37-81.191,10.033-121.858c3.376-0.001,6.751-0.002,10.127-0.003C66.516,190.267,98.632,387.751,75.7,582.698
			C72.647,582.698,69.593,582.697,66.54,582.696z"/>
		<path class="st1" d="M232.185-4.285c7.813,100.879,12.551,202.292,5.233,303.368c-3.46,47.247-8.421,94.373-12.946,141.525
			c-4.189,47.062-10.322,95.027-5.245,142.095c-3.376,0.001-6.751,0.002-10.127,0.002c-5.022-87.219,12.04-173.31,17.285-260.088
			c8.507-108.807,5.476-218.26-3.85-326.915C225.751-4.293,228.968-4.289,232.185-4.285z"/>
		<path class="st1" d="M99.176,582.709c-6.741-59.092-8.182-119.121-5.681-178.557c3.568-51.66,16.501-101.979,22.983-153.255
			c10.67-84.487,8.372-170.181,7.174-255.183c2.895,0,5.79,0,8.685,0c-2.201,92.747,6.681,186.46-8.865,278.321
			c-7.908,44.725-17.556,89.199-19.924,134.726c-4.274,57.945-1.844,116.279,4.792,173.941
			C105.286,582.705,102.231,582.707,99.176,582.709z"/>
	</g>
</g>
</svg>
